<svg width="24" height="23" viewBox="0 0 24 23" fill="none" xmlns="http://www.w3.org/2000/svg">
<g clip-path="url(#clip0_20_302)">
<path d="M5.43438 2.49447C5.43438 3.87214 4.38743 4.98894 2.66617 4.98894C1.04695 4.98678 0 3.87214 0 2.49447C0 1.1168 1.08022 0 2.73494 0C4.38965 0 5.40111 1.0823 5.43438 2.49447ZM0.135305 23V6.95519H5.2658V23H0.135305Z" fill="#00A3FF"/>
<path d="M8.33648 12.0736C8.33648 10.0728 8.26993 8.39977 8.20117 6.95526H12.6574L12.8947 9.1867H12.9967C13.671 8.13674 15.3258 6.59521 18.094 6.59521C21.4699 6.59521 24.0008 8.79432 24.0008 13.5181V23.0001H18.8703V14.1088C18.8703 12.0412 18.1272 10.6312 16.2707 10.6312C14.8533 10.6312 14.0104 11.582 13.6378 12.5004C13.5025 12.8282 13.4692 13.2874 13.4692 13.7466V22.9979H8.33869V12.0714L8.33648 12.0736Z" fill="#00A3FF"/>
</g>
<defs>
<clipPath id="clip0_20_302">
<rect width="24" height="23" fill="white"/>
</clipPath>
</defs>
</svg>
