<svg width="399" height="243" viewBox="0 0 399 243" fill="none" xmlns="http://www.w3.org/2000/svg">
<rect x="0.666687" width="398" height="243" fill="url(#paint0_radial_332_1324)"/>
<g clip-path="url(#clip0_332_1324)">
<path d="M216.147 63.1831C214.723 64.2073 211.994 65.5984 208.484 64.7361C202.403 63.2355 200.664 58 200.664 58C200.664 58 198.926 63.2403 192.844 64.7361C189.334 65.5984 186.605 64.2073 185.181 63.1831H184.081V91.4329C184.081 92.1475 184.257 93.5529 185.414 94.963C186.843 96.7018 189.272 97.8308 192.625 98.312C195.297 98.6979 197.273 99.5411 198.664 100.88C199.688 101.866 200.659 103.571 200.659 103.571C200.659 103.571 201.669 101.828 202.655 100.88C204.046 99.5411 206.022 98.6979 208.694 98.312C212.047 97.8261 214.476 96.7018 215.905 94.963C217.062 93.5576 217.238 92.1475 217.238 91.4329V63.1831H216.138H216.147ZM216.252 91.4329C216.252 92.3571 215.866 96.2731 208.561 97.3306C205.674 97.7499 203.522 98.6741 201.969 100.165C201.412 100.699 200.988 101.247 200.664 101.747C200.34 101.247 199.916 100.703 199.359 100.165C197.811 98.6741 195.659 97.7451 192.773 97.3306C185.467 96.2731 185.081 92.3571 185.081 91.4329V64.2836C185.081 64.2836 188.405 66.8704 193.087 65.6984C198.545 64.336 200.664 60.2438 200.664 60.2438C200.664 60.2438 202.784 64.3312 208.241 65.6984C212.923 66.8704 216.247 64.2836 216.247 64.2836V91.4282L216.252 91.4329Z" fill="white"/>
<path d="M214.423 77.208H186.915V91.4234C186.915 91.5711 186.729 94.539 193.039 95.5109C198.55 96.3636 200.669 98.9742 200.669 98.9742C200.669 98.9742 202.788 96.3588 208.299 95.5109C214.609 94.5343 214.423 91.5711 214.423 91.4234V77.208ZM197.268 80.3617L196.459 80.8381V94.6295L194.392 94.0102L191.406 85.2018V91.009L192.353 91.7379V93.5291L188.21 92.4763V90.9518L189.158 90.5802V80.8476L188.186 80.3665V78.6134H191.32L194.249 87.6028V80.8429L193.401 80.3665V78.6134H197.264V80.3665L197.268 80.3617ZM205.222 82.1767H203.655L203.179 80.7095H201.364V84.835H202.726L203.265 84.0537H204.355V87.7267H203.265L202.75 86.9835H201.369V93.7816L202.198 94.7725V96.5256L198.092 94.9916V93.5053L198.997 93.1337V80.8381L198.097 80.3808V78.6086H205.227V82.1767H205.222ZM213.147 92.4667L205.898 94.4009V92.6478L206.917 91.8093V80.8333L206.046 80.376V78.6038H210.156V80.376L209.346 80.8333V91.1281L211.113 90.6517L211.452 87.9553H213.142V92.462L213.147 92.4667Z" fill="white"/>
<path d="M187.172 75.7645L188.405 74.8975L189.643 75.7645L189.186 74.302L190.429 73.3635H188.91L188.405 71.9248L187.905 73.3635H186.386L187.629 74.302L187.172 75.7645Z" fill="white"/>
<path d="M192.568 75.7645L193.806 74.8975L195.04 75.7645L194.582 74.302L195.825 73.3635H194.306L193.806 71.9248L193.301 73.3635H191.782L193.025 74.302L192.568 75.7645Z" fill="white"/>
<path d="M187.172 70.891L188.405 70.0239L189.643 70.891L189.186 69.4284L190.429 68.49H188.91L188.405 67.0513L187.905 68.49H186.386L187.629 69.4284L187.172 70.891Z" fill="white"/>
<path d="M192.568 70.891L193.806 70.0239L195.04 70.891L194.582 69.4284L195.825 68.49H194.306L193.806 67.0513L193.301 68.49H191.782L193.025 69.4284L192.568 70.891Z" fill="white"/>
<path d="M211.694 75.7645L212.928 74.8975L214.166 75.7645L213.709 74.302L214.952 73.3635H213.433L212.928 71.9248L212.428 73.3635H210.909L212.152 74.302L211.694 75.7645Z" fill="white"/>
<path d="M206.294 75.7645L207.532 74.8975L208.765 75.7645L208.308 74.302L209.551 73.3635H208.032L207.532 71.9248L207.027 73.3635H205.508L206.751 74.302L206.294 75.7645Z" fill="white"/>
<path d="M211.694 70.891L212.928 70.0239L214.166 70.891L213.709 69.4284L214.952 68.49H213.433L212.928 67.0513L212.428 68.49H210.909L212.152 69.4284L211.694 70.891Z" fill="white"/>
<path d="M206.294 70.891L207.532 70.0239L208.765 70.891L208.308 69.4284L209.551 68.49H208.032L207.532 67.0513L207.027 68.49H205.508L206.751 69.4284L206.294 70.891Z" fill="white"/>
<path d="M197.126 75.4262C197.216 74.5782 197.535 72.6965 198.478 70.6861C198.149 70.567 197.878 70.5194 197.878 70.5194C197.973 70.3146 198.111 70.0573 198.111 70.0573C198.811 70.1907 199.431 70.4813 199.969 70.9053C199.84 71.1149 199.755 71.2483 199.693 71.3579C199.507 71.2102 199.316 71.0815 199.107 70.9672C198.045 72.8299 197.549 74.583 197.349 75.5072C197.359 75.5644 197.478 75.5929 197.568 75.5834C201.945 75.0165 203.993 72.7823 204.617 70.367C205.027 68.7806 204.893 67.118 204.346 65.765C204.308 65.6698 204.231 65.5126 204.103 65.5221C204.103 65.5221 203.46 65.8556 202.56 66.7416C202.764 66.856 202.993 67.018 203.122 67.1275C202.984 67.2466 202.845 67.38 202.717 67.4991C202.131 67.018 201.521 66.7702 201.05 66.6559C201.207 66.5416 201.374 66.432 201.536 66.3272C201.788 66.3939 202.036 66.4939 202.036 66.4939C203.05 65.7222 203.931 65.3887 203.931 65.3887C203.931 65.3887 203.831 65.3411 203.56 65.3411C199.569 65.3935 195.887 68.3757 196.583 73.4778C196.659 74.0209 196.868 75.0022 197.135 75.4357L197.126 75.4262ZM200.483 67.0751C201.307 67.2752 201.864 67.642 202.241 67.9564C202.107 68.0946 201.974 68.228 201.85 68.3661C201.298 67.9088 200.674 67.6134 200.016 67.4753C200.178 67.3228 200.34 67.1942 200.483 67.0751ZM199.521 67.9707C200.078 68.0708 200.788 68.3614 201.407 68.8759C201.279 69.0283 201.164 69.1808 201.05 69.3284C200.521 68.8854 199.878 68.5567 199.154 68.409C199.264 68.2661 199.397 68.1136 199.521 67.9707ZM198.764 68.9521C199.559 69.1093 200.207 69.4809 200.659 69.8668C200.545 70.0335 200.431 70.1907 200.336 70.3384C199.769 69.862 199.102 69.5714 198.45 69.4475C198.45 69.4475 198.65 69.1236 198.764 68.9521Z" fill="white"/>
<path fill-rule="evenodd" clip-rule="evenodd" d="M225.897 176.268C219.057 181.318 209.142 184 200.607 184C188.643 184 177.866 179.574 169.712 172.214C169.074 171.638 169.641 170.847 170.412 171.295C179.209 176.416 190.086 179.498 201.321 179.498C208.899 179.498 217.233 177.926 224.901 174.672C226.058 174.182 227.025 175.435 225.897 176.268Z" fill="white"/>
<path fill-rule="evenodd" clip-rule="evenodd" d="M228.74 173.019C227.863 171.9 222.958 172.491 220.753 172.753C220.086 172.834 219.981 172.248 220.581 171.828C224.496 169.08 230.912 169.87 231.655 170.795C232.407 171.724 231.459 178.155 227.787 181.228C227.221 181.699 226.687 181.447 226.935 180.823C227.759 178.76 229.607 174.144 228.735 173.024L228.74 173.019Z" fill="white"/>
<path d="M90.7526 113.699H104.126L103.04 118.844H99.0681L95.8962 133.708H90.4668L93.6387 118.844H89.6667L90.7526 113.699Z" fill="white"/>
<path d="M105.612 113.699H111.041L109.498 120.959H114.299L115.842 113.699H121.271L117.014 133.708H111.584L113.213 126.104H108.412L106.784 133.708H101.354L105.612 113.699Z" fill="white"/>
<path d="M121.014 125.447L123.5 113.699H128.93L126.301 126.133C125.958 127.734 126.758 128.991 128.158 128.991C129.558 128.991 130.73 127.877 131.101 126.133L133.73 113.699H139.16L136.417 126.59C135.416 131.307 132.13 134.136 127.587 134.136C122.557 134.136 119.9 130.621 121.014 125.447Z" fill="white"/>
<path d="M146.875 113.699L142.617 133.708H137.188L141.446 113.699H146.875Z" fill="white"/>
<path d="M149.218 113.699H155.505C159.849 113.699 162.535 116.586 161.735 120.359C161.306 122.446 160.249 123.903 158.706 124.818C159.763 125.904 160.134 127.476 159.763 129.306L158.82 133.708H153.419L154.333 129.391C154.591 128.134 153.991 127.276 152.79 127.276H151.733L150.361 133.708H144.961L149.218 113.699ZM153.962 122.474C155.248 122.474 155.962 121.703 156.191 120.616C156.419 119.53 155.819 118.787 154.762 118.787H153.533L152.762 122.474H153.962Z" fill="white"/>
<path d="M161.906 126.933H167.335C167.05 128.22 167.821 129.02 168.936 129.02C169.964 129.02 170.507 128.505 170.622 127.905C170.822 126.933 170.107 126.505 169.221 126.19L167.65 125.619C164.335 124.418 163.02 122.017 163.735 118.501C164.392 115.329 167.135 113.271 170.679 113.271C175.251 113.271 177.966 116.329 177.08 120.502H171.65C171.908 119.33 171.479 118.416 170.393 118.416C169.65 118.416 169.079 118.844 168.936 119.473C168.764 120.331 169.279 120.788 170.222 121.074L172.279 121.703C175.451 122.674 176.708 124.99 175.994 128.563C175.337 131.907 172.479 134.136 168.678 134.136C164.135 134.136 161.049 130.878 161.906 126.933Z" fill="white"/>
<path d="M196.083 124.475C194.854 130.306 190.196 133.708 184.967 133.708H176.622L180.88 113.699H187.51C194.168 113.699 197.34 118.53 196.083 124.475ZM185.338 128.563C187.881 128.563 190.139 126.39 190.739 123.618C191.31 121.017 189.967 118.844 187.396 118.844H185.224L183.166 128.563H185.338Z" fill="white"/>
<path d="M204.369 113.699H209.399L211.799 133.708H206.255L206.055 131.106H200.683L199.454 133.708H193.454L204.369 113.699ZM205.798 126.047L205.341 120.874L202.684 126.047H205.798Z" fill="white"/>
<path d="M219.143 113.699L220.343 120.645L224.744 113.699H230.659L221.972 126.733L220.486 133.708H215.057L216.543 126.733L213.285 113.699H219.143Z" fill="white"/>
<path d="M244.461 123.56C244.461 123.56 244.918 120.331 245.604 117.015L246.319 113.699H251.605L247.347 133.708H242.547L241.432 129.334C240.603 126.047 240.003 122.846 240.003 122.846C240.003 122.846 239.546 126.076 238.832 129.391L237.917 133.708H232.631L236.889 113.699H242.204L243.032 117.072C243.861 120.331 244.461 123.56 244.461 123.56Z" fill="white"/>
<path d="M259.378 113.699L255.12 133.708H249.69L253.948 113.699H259.378Z" fill="white"/>
<path d="M259.263 122.932C260.549 116.872 265.093 113.271 270.722 113.271C276.895 113.271 279.638 116.672 279.666 120.445H273.551C273.294 118.987 272.008 118.301 270.208 118.301C267.579 118.301 265.407 120.188 264.778 123.189C264.035 126.705 265.636 129.106 268.893 129.106C271.094 129.106 272.751 127.991 273.18 126.39L267.922 126.648L268.979 121.703H279.409C279.409 121.703 279.352 123.303 278.952 125.247C277.838 130.792 274.008 134.136 268.436 134.136C262.092 134.136 257.977 128.934 259.263 122.932Z" fill="white"/>
<path d="M283.148 113.699H288.577L287.034 120.959H291.835L293.378 113.699H298.807L294.55 133.708H289.12L290.749 126.104H285.948L284.319 133.708H278.89L283.148 113.699Z" fill="white"/>
<path d="M300.293 113.699H313.667L312.581 118.844H308.609L305.437 133.708H300.008L303.179 118.844H299.207L300.293 113.699Z" fill="white"/>
<path d="M149.133 137.995L148.047 143.14H142.074L141.56 145.513H146.732L145.646 150.686H140.474L138.903 158.003H133.473L137.731 137.995H149.133Z" fill="white"/>
<path d="M148.247 148.056C148.99 141.997 154.019 137.566 160.134 137.566C166.25 137.566 170.107 142.225 169.364 148.056C168.621 154.059 163.592 158.432 157.505 158.432C151.419 158.432 147.504 153.83 148.247 148.056ZM158.048 153.287C160.82 153.287 163.335 151.001 163.763 148.056C164.192 145.055 162.335 142.711 159.563 142.711C156.791 142.711 154.276 145.055 153.848 148.056C153.419 151.001 155.248 153.287 158.048 153.287Z" fill="white"/>
<path d="M170.65 148.056C171.393 141.997 176.422 137.566 182.538 137.566C188.653 137.566 192.511 142.225 191.768 148.056C191.025 154.059 185.995 158.432 179.909 158.432C173.822 158.432 169.907 153.83 170.65 148.056ZM180.452 153.287C183.223 153.287 185.738 151.001 186.167 148.056C186.595 145.055 184.738 142.711 181.966 142.711C179.194 142.711 176.68 145.055 176.251 148.056C175.822 151.001 177.651 153.287 180.452 153.287Z" fill="white"/>
<path d="M194.054 137.995H207.427L206.341 143.14H202.369L199.197 158.003H193.768L196.94 143.14H192.968L194.054 137.995Z" fill="white"/>
<path d="M208.913 137.995H215C219.2 137.995 221.915 140.139 221.172 143.655C220.715 145.741 219.429 146.942 218.172 147.456C219.543 148.028 220.458 149.857 219.857 152.773C219.172 156.031 215.971 158.003 212.599 158.003H204.655L208.913 137.995ZM212.656 153.516C213.485 153.516 214.257 153.059 214.485 152.03C214.714 150.972 214.2 150.229 213.114 150.229H211.742L211.056 153.516H212.656ZM213.657 145.77C214.742 145.77 215.4 145.341 215.628 144.255C215.857 143.169 215.457 142.483 214.085 142.483H213.399L212.685 145.77H213.657Z" fill="white"/>
<path d="M230.059 137.995H235.088L237.489 158.003H231.945L231.745 155.402H226.373L225.144 158.003H219.143L230.059 137.995ZM231.488 150.343L231.031 145.17L228.373 150.343H231.488Z" fill="white"/>
<path d="M248.176 137.995L245.033 152.858H251.005L249.891 158.003H238.489L242.747 137.995H248.176Z" fill="white"/>
<path d="M261.287 137.995L258.144 152.858H264.116L263.002 158.003H251.6L255.858 137.995H261.287Z" fill="white"/>
</g>
<defs>
<radialGradient id="paint0_radial_332_1324" cx="0" cy="0" r="1" gradientUnits="userSpaceOnUse" gradientTransform="translate(199.667 121.5) rotate(90) scale(121.5 199)">
<stop stop-color="#081F78"/>
<stop offset="1" stop-color="#0A1C65"/>
</radialGradient>
<clipPath id="clip0_332_1324">
<rect width="224" height="126" fill="white" transform="translate(89.6667 58)"/>
</clipPath>
</defs>
</svg>
